HIERARCHY
ROOT Hips
{
    OFFSET 0.000000 0.000000 0.000000
    CHANNELS 6 Xposition Yposition Zposition Zrotation Xrotation Yrotation
    JOINT Spine
    {
        OFFSET -0.000000 8.349382 0.000000
        CHANNELS 3 Zrotation Xrotation Yrotation
        JOINT Spine1
        {
            OFFSET -0.000000 23.269058 0.000000
            CHANNELS 3 Zrotation Xrotation Yrotation
            JOINT Neck
            {
                OFFSET -0.000000 23.173496 2.106681
                CHANNELS 3 Zrotation Xrotation Yrotation
                JOINT Head
                {
                    OFFSET -0.000000 14.255042 -2.036435
                    CHANNELS 3 Zrotation Xrotation Yrotation
                    End Site
                    {
                        OFFSET -0.000000 25.455433 0.000000
                    }
                }
            }
            JOINT LeftShoulder
            {
                OFFSET 3.917082 21.531742 0.000256
                CHANNELS 3 Zrotation Xrotation Yrotation
                JOINT LeftArm
                {
                    OFFSET 10.728225 0.000000 0.000000
                    CHANNELS 3 Zrotation Xrotation Yrotation
                    JOINT LeftForeArm
                    {
                        OFFSET 30.046112 0.000000 0.000000
                        CHANNELS 3 Zrotation Xrotation Yrotation
                        JOINT LeftHand
                        {
                            OFFSET 29.023712 0.000000 0.000000
                            CHANNELS 3 Zrotation Xrotation Yrotation
                            End Site
                            {
                                OFFSET 15.273261 0.000000 0.000000
                            }
                        }
                    }
                }
            }
            JOINT RightShoulder
            {
                OFFSET -3.920664 21.531742 0.000256
                CHANNELS 3 Zrotation Xrotation Yrotation
                JOINT RightArm
                {
                    OFFSET -10.728225 0.000000 0.000000
                    CHANNELS 3 Zrotation Xrotation Yrotation
                    JOINT RightForeArm
                    {
                        OFFSET -30.046112 0.000000 0.000000
                        CHANNELS 3 Zrotation Xrotation Yrotation
                        JOINT RightHand
                        {
                            OFFSET -29.023712 0.000000 0.000000
                            CHANNELS 3 Zrotation Xrotation Yrotation
                            End Site
                            {
                                OFFSET -15.273261 0.000000 0.000000
                            }
                        }
                    }
                }
            }
        }
    }
    JOINT LeftUpLeg
    {
        OFFSET 10.182174 0.000000 0.000000
        CHANNELS 3 Zrotation Xrotation Yrotation
        JOINT LeftLeg
        {
            OFFSET -0.000000 -49.689274 0.000000
            CHANNELS 3 Zrotation Xrotation Yrotation
            JOINT LeftFoot
            {
                OFFSET -0.000000 -39.155319 0.000000
                CHANNELS 3 Zrotation Xrotation Yrotation
                JOINT LeftToeBase
                {
                    OFFSET -0.000000 -6.618412 15.273261
                    CHANNELS 3 Zrotation Xrotation Yrotation
                    End Site
                    {
                        OFFSET -0.000000 0.000000 4.072869
                    }
                }
            }
        }
    }
    JOINT RightUpLeg
    {
        OFFSET -10.182174 0.000000 0.000000
        CHANNELS 3 Zrotation Xrotation Yrotation
        JOINT RightLeg
        {
            OFFSET -0.000000 -49.689274 0.000000
            CHANNELS 3 Zrotation Xrotation Yrotation
            JOINT RightFoot
            {
                OFFSET -0.000000 -39.155319 0.000000
                CHANNELS 3 Zrotation Xrotation Yrotation
                JOINT RightToeBase
                {
                    OFFSET -0.000000 -6.618412 15.273261
                    CHANNELS 3 Zrotation Xrotation Yrotation
                    End Site
                    {
                        OFFSET -0.000000 0.000000 4.072869
                    }
                }
            }
        }
    }
}
MOTION
Frames:    8
Frame Time:    0.008333
119.553520    117.044876    44.144096    1.828917    -5.072736    85.235352    1.733626    -0.645542    -0.365558    4.922842    7.708596    -0.707319    -2.116566    -2.933152    6.106577    -1.064343    3.352591    6.605758    3.096659    4.044577    -12.371933    -50.856834    24.278280    -2.204132    5.121609    0.057289    -40.868046    -15.524590    0.669373    9.499720    -5.396037    12.403651    -15.957073    52.804001    51.523792    10.236675    -4.465373    -0.793527    31.169170    -12.260326    -0.522897    9.066856    8.751324    -8.706072    -1.764731    -4.041845    1.080147    0.134152    -13.793979    30.033285    26.057518    0.000000    0.000000    0.000000    -3.927536    -13.436147    -12.018726    -57.112175    86.669212    85.882614    -5.008104    -35.347828    -15.278063    0.000000    0.000000    0.000000    
120.093414    116.032883    43.972370    1.930062    -5.403549    84.855804    1.809191    -0.340988    -0.199231    5.463065    7.436631    -0.560016    -2.906125    -3.090255    5.977068    -0.728888    3.410765    6.651350    2.657464    3.754098    -11.922004    -49.612625    25.260538    -1.167157    6.080932    0.119391    -43.520809    -15.999155    1.234172    9.339611    -6.418381    13.156633    -15.179310    53.514362    51.351429    8.957470    -4.617397    -1.550538    32.453770    -12.649608    -1.248045    9.382937    8.931462    -8.071397    -1.678713    -3.726145    0.468946    0.289780    -14.513584    31.354780    26.194555    0.000000    0.000000    0.000000    -4.315956    -14.058086    -11.784300    -98.582809    87.406624    125.144806    -1.394027    -34.246323    -10.517811    0.000000    0.000000    0.000000    
120.654465    114.986481    43.794125    2.065836    -5.696024    84.412338    2.038020    -0.079479    0.018559    5.671631    7.216281    -0.339357    -3.674131    -3.173278    5.793338    -0.290880    3.552124    6.647895    2.184075    3.553428    -11.580524    -48.122860    26.230854    -0.107531    7.486735    0.105041    -46.131641    -17.875278    1.865262    9.094170    -7.260383    13.851588    -14.443849    54.035995    51.361855    7.855793    -4.392909    -2.205905    33.703125    -14.038206    -2.005876    9.170251    9.075548    -7.372208    -1.693693    -3.472322    -0.125292    0.479986    -15.068406    32.759155    26.179590    0.000000    0.000000    0.000000    -4.760322    -14.566609    -11.491461    -137.842316    86.193726    166.604721    -1.277803    -33.051537    -11.258081    0.000000    0.000000    0.000000    
121.211327    113.917885    43.598701    2.163700    -6.014364    83.968170    2.820949    0.035295    0.227504    4.836805    7.242412    -0.077656    -3.622404    -3.263728    5.803008    -0.296025    3.472042    6.650877    2.353708    3.099931    -11.250449    -46.893108    27.285574    1.145214    8.912386    -0.300478    -48.738247    -19.800415    2.212783    8.768838    -7.567213    14.270755    -13.632330    54.626431    51.487438    6.649125    -4.180822    -2.701177    34.721565    -15.699925    -2.660177    9.169522    9.191531    -6.737377    -1.731206    -3.165772    -0.687521    1.079040    -15.490252    34.478828    25.660749    0.000000    0.000000    0.000000    -5.173032    -14.992505    -11.222962    -152.012360    83.815125    -172.388840    -3.807745    -31.869232    -17.368473    0.000000    0.000000    0.000000    
121.794937    112.814163    43.418610    2.303632    -6.381604    83.480988    3.860924    0.016028    0.478267    3.537253    7.676707    0.241540    -3.592265    -3.719473    5.653883    0.190663    3.574314    6.559211    2.940256    2.695993    -10.679175    -45.595242    28.607990    1.875755    10.517282    -1.116154    -50.957733    -22.070475    2.292229    8.294433    -7.754321    14.419096    -12.821709    55.598206    52.407761    5.148166    -4.414083    -3.672923    35.703285    -16.784933    -3.598356    9.117071    9.361249    -6.078584    -1.771449    -2.929157    -1.080127    1.523728    -15.282121    36.260769    24.710663    0.000000    0.000000    0.000000    -5.526113    -15.263885    -10.902850    -157.660995    81.560143    -159.247543    -6.562556    -30.587521    -24.135477    0.000000    0.000000    0.000000    
122.395775    111.663246    43.231171    2.440118    -6.758216    83.018692    4.746673    0.158160    0.855398    2.476028    7.851077    0.692008    -3.391883    -3.934129    5.465356    0.313712    3.273523    6.347425    3.529922    1.798801    -10.648767    -44.867283    29.768471    3.284276    11.755193    -2.001014    -52.918663    -24.263054    2.224914    7.663035    -7.812395    14.684707    -12.405746    56.300785    53.604874    3.823478    -4.667162    -4.610392    36.526089    -18.052008    -4.527366    9.159472    9.513684    -5.470829    -1.868465    -2.764033    -1.201841    1.922503    -15.331280    37.506199    23.860561    0.000000    0.000000    0.000000    -5.876266    -15.424989    -10.531073    -159.438599    79.212044    -149.584351    -9.175153    -29.404400    -30.612722    0.000000    0.000000    0.000000    
123.000885    110.466911    43.021027    2.494055    -7.048598    82.578575    5.433311    0.000931    1.184246    1.681383    8.430683    1.060331    -3.386516    -4.341935    5.270102    0.515864    3.004221    6.179569    4.085174    1.190137    -10.292408    -43.566395    30.184654    3.944462    11.809972    -2.744406    -54.876457    -26.129683    1.671644    7.497616    -8.156727    14.904184    -12.070403    56.856640    55.034904    2.905200    -4.909165    -5.589330    37.302479    -19.129757    -5.454442    9.018655    9.590530    -5.157279    -2.208579    -2.824298    -0.755134    2.167968    -15.190699    38.352901    23.296970    0.000000    0.000000    0.000000    -6.374305    -15.744748    -10.173627    -159.755219    76.830162    -141.190231    -11.037579    -27.942385    -36.460655    0.000000    0.000000    0.000000    
123.560036    109.234810    42.788948    2.489765    -7.280171    82.309074    5.909684    -0.100615    1.332197    1.345249    8.866000    1.222681    -3.903446    -4.811087    5.100300    0.987102    2.837837    6.172005    4.355803    0.328873    -9.789473    -42.736515    31.310804    5.051094    11.840717    -4.408778    -56.467007    -28.228163    0.173455    7.153037    -9.055673    15.048104    -11.687328    57.813042    56.995884    1.978517    -5.719255    -6.629590    37.700424    -19.702211    -6.243271    8.998736    9.562475    -5.114146    -2.557664    -2.964420    0.200634    1.372011    -15.802406    38.533844    23.924559    0.000000    0.000000    0.000000    -6.864363    -16.019144    -10.033358    -158.828766    74.352821    -132.900192    -13.575953    -26.464361    -43.557182    0.000000    0.000000    0.000000    
